# 
# Generated by Sweet Home 3D - Sun Jan 15 06:53:06 WIT 2017
# http://www.sweethome3d.com/
# 
mtllib lantai.mtl
g room_1_1
usemtl room_1_1
v 1186.39 275.0 -643.487
v 1186.39 275.0 -343.48697
v 1286.39 275.0 -343.48697
v 1286.39 275.0 -643.487
vn 0.0 1.0 0.0
f 1//1 2//1 3//1
f 1//1 3//1 4//1
v 1186.39 263.0 -643.487
v 1186.39 263.0 -343.48697
v 1286.39 263.0 -343.48697
v 1286.39 263.0 -643.487
vn -1.0 0.0 0.0
vn 0.0 0.0 1.0
vn 1.0 0.0 0.0
vn 0.0 0.0 -1.0
f 1//2 5//2 6//2 2//2
f 2//3 6//3 7//3 3//3
f 3//4 7//4 8//4 4//4
f 4//5 8//5 5//5 1//5
vn 0.0 -1.0 0.0
f 8//6 7//6 6//6
f 8//6 6//6 5//6
